# xmcd
#
# Track frame offsets:
#	150
#	14363
#	30048
#	44615
#	58138
#	72999
#	84646
#	98290
#	116552
#	139441
#	150140
#	171577
#	181182
#	193500
#	206927
#	227872
#
# Disc length: 3271 seconds
#
# Revision: 1
# Processed by: cddbd v1.5.2PL0 Copyright (c) Steve Scherf et al.
# Submitted via: audiograbber 1.83.01
#
DISCID=d60cc510
DTITLE=Timelesstyle - Timelesstyle 001
DYEAR=2006
DGENRE=Country
TTITLE0=A Western Boogie - Dave Alexander
TTITLE1=Kiss And Makeup  - Mike Siler
TTITLE2=Quater Horse Type Of Gal  - Dan T. Chambers
TTITLE3=At The Bottom Of A Bottle  - Bobby Cargill
TTITLE4=Honey Pie  - Lisa Booher
TTITLE5=Rodeo Clowns And Cowboyd  - Rex Robards
TTITLE6=Smoke, Smoke, Smoke (that Cigarette)  - Randy Brown
TTITLE7=Oregon Trail  - Joni Harms
TTITLE8=Rose, Myrose San Antone  - Billy Cate
TTITLE9=Too Far Back To Texas  - Ken Overcast
TTITLE10=Take Back Your Old Love Letters  - Michael Wooddard
TTITLE11=Dining Out  - Jean Prescott
TTITLE12=Deep Water  - Tommy Alverson
TTITLE13=Waylon At The Moon  - Wade Hatton and The Texas Hat Band
TTITLE14=Wal-mart - Ralinda Owens
TTITLE15=Burleson Blues  - Chris Booher
EXTD=
EXTT0=
EXTT1=
EXTT2=
EXTT3=
EXTT4=
EXTT5=
EXTT6=
EXTT7=
EXTT8=
EXTT9=
EXTT10=
EXTT11=
EXTT12=
EXTT13=
EXTT14=
EXTT15=
PLAYORDER=
